<?xml version="1.0" encoding="utf-8"?>
<!-- Svg Vector Icons : http://www.onlinewebfonts.com/icon -->
<!DOCTYPE svg PUBLIC "-//W3C//DTD SVG 1.1//EN" "http://www.w3.org/Graphics/SVG/1.1/DTD/svg11.dtd">
<svg version="1.1" xmlns="http://www.w3.org/2000/svg" xmlns:xlink="http://www.w3.org/1999/xlink" x="0px" y="0px" viewBox="0 0 1000 1000" enable-background="new 0 0 1000 1000" xml:space="preserve">
<metadata> Svg Vector Icons : http://www.onlinewebfonts.com/icon </metadata>
<g><path d="M684.8,376.7l-61.5-61.5L500,438.4L376.9,315.2l-61.6,61.5L438.4,500L315.2,623.1l61.6,61.6L500,561.5l123.3,123.3l61.5-61.6L561.6,500L684.8,376.7z"/><path d="M500,10C229.3,10,10,229.3,10,500c0,270.7,219.3,490,490,490c270.7,0,490-219.3,490-490C990,229.3,770.7,10,500,10z M500,924.6C265.4,924.6,75.4,734.4,75.4,500C75.4,265.4,265.4,75.4,500,75.4S924.6,265.4,924.6,500C924.8,734.4,734.6,924.6,500,924.6z"/></g>
</svg>